{"title":"Hoodwinked.Too-Hood.Vs.Evil.2011.DVDRip.XVID.AC3.HQ.Hive-CM8","uid":6578330,"size":1735783667,"categoryP":"video","categoryS":"movies","magnet":"?xt=urn:btih:e33794513b689127c5dc44a8a59d8bf78f2201f7&amp;dn=Hoodwinked.Too-Hood.Vs.Evil.2011.DVDRip.XVID.AC3.HQ.Hive-CM8&amp;tr=udp%3A%2F%2Ftracker.openbittorrent.com%3A80&amp;tr=udp%3A%2F%2Fopen.demonii.com%3A1337&amp;tr=udp%3A%2F%2Ftracker.coppersurfer.tk%3A6969&amp;tr=udp%3A%2F%2Fexodus.desync.com%3A6969","seeders":0,"leechers":1,"uploader":"TvTeam","files":6,"time":1312302157,"description":". \n  &lt;a href=&quot;\nhttp://www.torrenting.com/&quot; rel=&quot;nofollow&quot; target=&quot;_NEW&quot;&gt;\nhttp://www.torrenting.com/&lt;/a&gt;        :     Greatest Movie Tracker on The Net!!!\n &lt;a href=&quot;\nhttp://www.Torrenting.com&quot; rel=&quot;nofollow&quot; target=&quot;_NEW&quot;&gt;\nhttp://www.Torrenting.com&lt;/a&gt;          :     Once &amp; For all ;)\n\n\n               www . Torrenting . Com \n\n(((((((((((((= Enjoy No RAR releases =))))))))))))))))))))\n\n\n...................................NFO:....................................\n\n.[img]http://img31.imageshack.us/img31/3695/hoodwinked2bluraydvdcov.jpg[/img]\n\n[color=blue][size=4][b]Hoodwinked.Too-Hood.Vs.Evil.2011.DVDRip.XVID.AC3.HQ.Hive-CM8[/b][/size][/color]\n\n\n[b]Thx Hive\n\n\nCM8 Doing It Right The First Time :D\n\nSource DVD-R big thx SiC\n\nDVD had great quality,just a bit dark, added brightness,sharpness,rgb,denoise\nlooks like a BDRip now in every way\nenjoy\n\n\nVideo: 720x400 @bitrate 2200 2pass\nAudio: English AC3 5.1 @448\nSample: yes included\nSubs: yes english in srt /subs[/b]\n\n\n[url]http://www.imdb.com/title/tt0844993/[/url]\n\n\nGeneral\nComplete name                    : Hoodwinked.Too-Hood.Vs.Evil.2011.DVDRip.XVID.AC3.HQ.Hive-CM8.avi\nFormat                           : AVI\nFormat/Info                      : Audio Video Interleave\nFile size                        : 1.60 GiB\nDuration                         : 1h 26mn\nOverall bit rate                 : 2 656 Kbps\nWriting application              : Nandub v1.0rc2\nWriting library                  : Nandub build 1853/release\n\nVideo\nID                               : 0\nFormat                           : MPEG-4 Visual\nFormat profile                   : Advanced Simple@L5\nFormat settings, BVOP            : 2\nFormat settings, QPel            : Yes\nFormat settings, GMC             : No warppoints\nFormat settings, Matrix          : Default (H.263)\nMuxing mode                      : Packed bitstream\nCodec ID                         : XVID\nCodec ID/Hint                    : XviD\nDuration                         : 1h 26mn\nBit rate                         : 2 199 Kbps\nWidth                            : 720 pixels\nHeight                           : 400 pixels\nDisplay aspect ratio             : 16:9\nFrame rate                       : 23.976 fps\nColor space                      : YUV\nChroma subsampling               : 4:2:0\nBit depth                        : 8 bits\nScan type                        : Progressive\nCompression mode                 : Lossy\nBits/(Pixel*Frame)               : 0.318\nStream size                      : 1.33 GiB (83%)\nWriting library                  : XviD 1.2.1 (UTC 2008-12-04)\n\nAudio\nID                               : 1\nFormat                           : AC-3\nFormat/Info                      : Audio Coding 3\nMode extension                   : CM (complete main)\nCodec ID                         : 2000\nDuration                         : 1h 26mn\nBit rate mode                    : Constant\nBit rate                         : 448 Kbps\nChannel(s)                       : 6 channels\nChannel positions                : Front: L C R, Side: L R, LFE\nSampling rate                    : 48.0 KHz\nBit depth                        : 16 bits\nCompression mode                 : Lossy\nStream size                      : 277 MiB (17%)\nAlignment                        : Split accross interleaves\nInterleave, duration             : 42 ms (1.00 video frame)\nInterleave, preload duration     : 500 ms\n\n\n\nGlenn Close\t... \tGranny Puckett (voice)\nHayden Panettiere\t... \tRed Riding Hood (voice)\nCheech Marin\t... \tMad Hog (voice)\nPatrick Warburton\t... \tThe Big Bad Wolf (voice)\nJoan Cusack\t... \tVerushka the Witch (voice)\nTommy Chong\t... \tStone (voice)\n\n\nRed Riding Hood is training in the group of Sister Hoods, when she and the Wolf \nare called to examine the sudden mysterious disappearance of Hansel and Gretel. \n  \n\n[img]http://img198.imageshack.us/img198/1007/91153886.png[/img]\n[img]http://img59.imageshack.us/img59/4580/hohog.png[/img]\n[img]http://img641.imageshack.us/img641/8697/hohoho.png[/img]\n[img]http://img828.imageshack.us/img828/421/hohohoho.png[/img]\n[img]http://img143.imageshack.us/img143/4703/hohohohoho.png[/img]\n[img]http://img37.imageshack.us/img37/6033/hohohohohoho.png[/img]\n[img]http://img34.imageshack.us/img34/3085/hohohohohohoho.png[/img]\n[img]http://img853.imageshack.us/img853/4526/hohohohohohohoho.png[/img]\n[img]http://img35.imageshack.us/img35/4775/hohohohohohohohoho.png[/img]\n[img]http://img97.imageshack.us/img97/6884/hohohohohohohohohoho.png[/img]\n\n\n\n\n\nGreetz\n\nViSiON,SiC,SANTi,3LT0N,YanKeeS,MAGNET,THC,T0XiC,LKRG,FANTASIA-PLAY,FANTASIA-M,BHRG,IMAGiNE,WBZ,FLAWL3SS,NOVA,\nD2U,Vik,Rapeseed,SAFC,goldadvance,MEMORY100,scumbag,Hero5,KaN1vE,Unevano,Pinnz,Wayne,cedrict wink,\nMr Hive and all P2P groups\nGreat Work Guys :D\n\nFYS\n\n&lt;a class=&quot;__cf_email__&quot; href=&quot;/cdn-cgi/l/email-protection&quot; data-cfemail=&quot;783b354038100d0b1015191114561b1715&quot;&gt;[email&amp;#160;protected]&lt;/a&gt;&lt;script cf-hash='f9e31' type=&quot;text/javascript&quot;&gt;\n/* &lt;![CDATA[ */!function(){try{var t=&quot;currentScript&quot;in document?document.currentScript:function(){for(var t=document.getElementsByTagName(&quot;script&quot;),e=t.length;e--;)if(t[e].getAttribute(&quot;cf-hash&quot;))return t[e]}();if(t&amp;&amp;t.previousSibling){var e,r,n,i,c=t.previousSibling,a=c.getAttribute(&quot;data-cfemail&quot;);if(a){for(e=&quot;&quot;,r=parseInt(a.substr(0,2),16),n=2;a.length-n;n+=2)i=parseInt(a.substr(n,2),16)^r,e+=String.fromCharCode(i);e=document.createTextNode(e),c.parentNode.replaceChild(e,c)}}}catch(u){}}();/* ]]&gt; */&lt;/script&gt;","torrent":{"xt":"urn:btih:e33794513b689127c5dc44a8a59d8bf78f2201f7","amp;dn":"Hoodwinked.Too-Hood.Vs.Evil.2011.DVDRip.XVID.AC3.HQ.Hive-CM8","amp;tr":["udp%3A%2F%2Ftracker.openbittorrent.com%3A80","udp%3A%2F%2Fopen.demonii.com%3A1337","udp%3A%2F%2Ftracker.coppersurfer.tk%3A6969","udp%3A%2F%2Fexodus.desync.com%3A6969"],"infoHash":"e33794513b689127c5dc44a8a59d8bf78f2201f7","infoHashBuffer":{"type":"Buffer","data":[227,55,148,81,59,104,145,39,197,220,68,168,165,157,139,247,143,34,1,247]},"announce":[],"urlList":[]}}